PathFileType	4	(X/Y/Z)	C:\Users\Basilio\Documents\Thesis Gigler\squatting_fais\c3dfiles\076\SLS_back_pre1\markers_experimental.trc
DataRate	CameraRate	NumFrames	NumMarkers	Units	OrigDataRate	OrigDataStartFrame	OrigNumFrames
200.000000	200.000000	4	61	mm	200.000000	1733	2311
Frame#	Time	FHD			LBHD			RBHD			C7			T10			CLAV			LSHO			LUUPA			LMUPA			LDUPA			LLEP			LMEP			LRAD			LUL			LRFIN			RSHO			RUPA1			RMUPA			RDUPA			RLEP			RMEP			RRAD			RUL			RUFIN			LASI			RASI			USACR			LSACR			RSACR			LTHI1			LTHI2			LTHI3			LTHI4			LLFC			LMFC			LTIB1			LTIB2			LTIB3			LTIB4			LLMAL			LMMAL			LHEE			LMT1			LMT2			LMT5			RTHI			RTHI2			RTHI3			RTHI4			RLFC			RMFC			RTIB1			RTIB2			RTIB3			RTIB4			RLMAL			RMMAL			RHEE			RMT1			RMT2			RMT5			
		X1	Y1	Z1	X2	Y2	Z2	X3	Y3	Z3	X4	Y4	Z4	X5	Y5	Z5	X6	Y6	Z6	X7	Y7	Z7	X8	Y8	Z8	X9	Y9	Z9	X10	Y10	Z10	X11	Y11	Z11	X12	Y12	Z12	X13	Y13	Z13	X14	Y14	Z14	X15	Y15	Z15	X16	Y16	Z16	X17	Y17	Z17	X18	Y18	Z18	X19	Y19	Z19	X20	Y20	Z20	X21	Y21	Z21	X22	Y22	Z22	X23	Y23	Z23	X24	Y24	Z24	X25	Y25	Z25	X26	Y26	Z26	X27	Y27	Z27	X28	Y28	Z28	X29	Y29	Z29	X30	Y30	Z30	X31	Y31	Z31	X32	Y32	Z32	X33	Y33	Z33	X34	Y34	Z34	X35	Y35	Z35	X36	Y36	Z36	X37	Y37	Z37	X38	Y38	Z38	X39	Y39	Z39	X40	Y40	Z40	X41	Y41	Z41	X42	Y42	Z42	X43	Y43	Z43	X44	Y44	Z44	X45	Y45	Z45	X46	Y46	Z46	X47	Y47	Z47	X48	Y48	Z48	X49	Y49	Z49	X50	Y50	Z50	X51	Y51	Z51	X52	Y52	Z52	X53	Y53	Z53	X54	Y54	Z54	X55	Y55	Z55	X56	Y56	Z56	X57	Y57	Z57	X58	Y58	Z58	X59	Y59	Z59	X60	Y60	Z60	X61	Y61	Z61	

1734	8.665000000000001	-13.36222743988037	1304.072875976563	-1030.939697265625	-162.2464141845703	1248.281494140625	-1124.668579101563	-144.1631774902344	1252.980590820313	-973.172302246094	-218.8202819824219	1170.676879882813	-1034.476806640625	-413.9318847656251	932.6721801757815	-997.7600097656252	-135.7139282226563	1042.847900390625	-1044.783447265625	-189.1786041259766	1102.3408203125	-1195.782836914063	-108.6326675415039	1002.139831542969	-1309.193481445313	-63.4828567504883	1000.904846191406	-1288.41455078125	-59.4084930419922	968.6468505859377	-1341.341552734375	-23.93009757995606	929.6436767578127	-1365.5498046875	-32.00486373901368	867.8591918945315	-1314.34423828125	222.2633056640626	879.598815917969	-1335.049682617188	216.7012786865235	876.3355712890627	-1400.25244140625	305.9226379394532	873.0662841796877	-1342.418212890625	-150.8605346679688	1095.199340820313	-890.9451293945315	-59.94505691528322	983.0637817382815	-790.6915283203127	-17.06094551086426	997.8721923828127	-809.228698730469	-1.560374975204468	944.5590820312502	-782.971862792969	60.34754562377931	917.7241210937502	-780.3064575195315	43.92257690429688	871.977966308594	-838.183044433594	293.5500793457032	850.994812011719	-840.507019042969	285.1931762695313	841.6348876953127	-774.949157714844	368.6885375976563	851.160095214844	-825.939880371094	-368.9944152832032	719.8403320312501	-1109.982421875	-364.0816955566407	686.1821289062501	-898.585876464844	-482.4683837890626	841.0031738281252	-985.9539794921877	-507.3829345703126	823.327331542969	-1015.216064453125	-501.8950500488282	814.0498046875002	-958.746032714844	-403.9773864746095	638.2723999023439	-1187.832641601563	-326.4513549804688	603.8200073242189	-1184.315673828125	-294.7989501953126	634.6032104492189	-1162.215454101563	-311.0350646972657	544.6196289062501	-1178.268920898438	-205.8700866699219	428.4740295410157	-1147.227783203125	-193.4444885253907	443.4859619140626	-1035.9404296875	-212.4004058837891	303.3854675292969	-1046.34130859375	-250.2751770019532	244.9916229248047	-1102.267822265625	-225.131820678711	248.3614807128907	-1061.573608398438	-276.8857727050782	197.6813964843751	-1018.788513183594	-379.8250732421876	106.5837173461914	-1056.575927734375	-351.2884826660157	121.8196792602539	-976.769958496094	-442.5001525878907	96.90159606933597	-1007.008850097656	-241.4792785644532	50.49643325805665	-991.253356933594	-235.8630828857422	49.72449111938478	-1030.057006835938	-260.8238830566407	44.70749664306641	-1079.930786132813	-481.0659790039064	468.4064941406251	-837.2783813476565	-451.5983276367189	406.5298767089845	-841.2283935546877	-419.440643310547	402.5064392089845	-852.7645263671877	-494.2571411132814	336.0059509277344	-856.9953613281252	-506.0257873535157	294.4647216796876	-866.4021606445315	-502.3914794921876	286.9261779785157	-980.9221191406252	-621.0078125000001	234.7622528076172	-893.0108642578127	-701.9768676757814	302.7584228515626	-866.987731933594	-703.9348144531251	257.7965393066407	-879.070251464844	-748.1900634765626	247.3367614746094	-917.579772949219	-886.9459228515627	303.8990783691407	-886.2823486328127	-867.7773437500002	287.9019775390626	-968.6419067382815	-902.4156494140627	367.3609008789063	-926.0776367187502	-939.2649536132815	171.8676300048828	-978.0837402343752	-941.8032226562502	158.2840423583985	-932.5595703125002	-963.1929931640627	182.3337707519532	-878.799987792969	
1735	8.67	-13.9558277130127	1305.675537109375	-1030.828979492188	-162.063217163086	1250.425415039063	-1124.187377929688	-144.6903991699219	1254.506225585938	-972.991394042969	-219.2901763916016	1172.075073242188	-1034.412475585938	-413.9978942871095	933.5833740234377	-997.8196411132815	-135.8623199462891	1044.222412109375	-1044.553833007813	-189.5933990478516	1103.399658203125	-1195.70654296875	-110.0397109985352	1002.067321777344	-1309.574462890625	-64.82999420166017	1000.609069824219	-1288.858154296875	-60.54937744140626	968.0750122070315	-1341.490112304688	-26.27841758728028	928.730407714844	-1365.988159179688	-34.99914550781251	867.3384399414065	-1314.949584960938	219.5610809326172	876.990661621094	-1334.900756835938	214.3684082031251	873.5637817382815	-1400.087280273438	303.1291809082032	869.786804199219	-1342.22998046875	-151.395980834961	1096.322143554688	-890.8094482421877	-61.60134124755861	982.7293701171877	-790.4714355468752	-18.47937393188477	997.1777954101565	-808.671081542969	-3.61447286605835	943.610290527344	-782.5711059570315	57.90907669067384	916.1636352539065	-779.5000000000002	41.45190429687501	871.1531982421877	-838.571716308594	290.6994934082032	847.3618164062502	-840.0977172851565	282.1105041503907	838.112487792969	-774.5582275390627	365.7517395019532	846.6508789062502	-825.4788818359377	-368.5394897460938	720.7515869140626	-1109.961059570313	-363.8085327148438	687.2731323242189	-898.5798950195315	-482.2022705078126	841.7852783203127	-986.0647583007815	-507.1072387695314	824.1358642578127	-1015.296020507813	-501.7115783691407	814.9390869140627	-958.975280761719	-403.5643615722657	638.6679687500001	-1187.724365234375	-326.0556335449219	604.0362548828126	-1184.153686523438	-294.2333068847657	634.8641357421876	-1162.215576171875	-310.7409973144532	544.8530883789064	-1177.98681640625	-205.9690246582032	428.3700561523439	-1146.985107421875	-193.4836425781251	443.5826110839845	-1035.61083984375	-212.3939514160157	303.5025329589844	-1046.026611328125	-250.2052917480469	245.0541534423829	-1102.101318359375	-225.1894073486329	248.4763793945313	-1061.283935546875	-276.9384155273438	197.6756591796876	-1018.598937988281	-379.8273620605469	106.61474609375	-1056.523315429688	-351.3015441894532	121.7296447753907	-976.703552246094	-442.4444885253907	96.86005401611331	-1007.069091796875	-241.4867706298829	50.45515060424806	-991.269226074219	-235.8917541503907	49.75619125366212	-1030.009887695313	-260.8213500976563	44.70751953125001	-1079.91796875	-480.4999389648439	469.5473022460939	-837.1719970703127	-451.1059570312501	407.6966857910157	-840.9854125976565	-418.9010009765626	403.7158813476564	-852.5869140625002	-493.7015991210939	337.0786132812501	-856.720642089844	-505.470184326172	295.4487609863282	-866.157165527344	-501.8082580566407	287.7644348144532	-980.6951293945315	-620.1973266601564	235.8178710937501	-892.6091308593752	-701.3886108398439	303.6266479492188	-867.0022583007815	-703.3037719726564	258.6481933593751	-878.9817504882815	-747.5383911132814	247.9716796875001	-917.535827636719	-886.3450317382815	304.5089111328126	-886.4781494140627	-867.025085449219	288.5178222656251	-968.8292236328127	-901.7626953125002	367.9637145996094	-926.332702636719	-938.5672607421877	172.3981628417969	-978.219665527344	-940.9406738281252	158.7958984375	-932.6983642578127	-962.4388427734377	182.8320007324219	-879.046081542969	
1736	8.675000000000001	-14.63798332214356	1307.480590820313	-1030.7265625	-163.2053985595703	1251.1435546875	-1124.109985351563	-145.1761932373047	1255.934204101563	-972.7483520507815	-219.6539001464844	1173.2890625	-1034.2451171875	-413.9214172363282	934.6301879882815	-997.8867797851565	-135.9113311767578	1045.557495117188	-1044.260986328125	-189.8420715332032	1104.48583984375	-1195.642700195313	-111.7055587768555	1002.163757324219	-1309.786743164063	-66.30308532714845	1000.163940429688	-1289.230102539063	-62.6953811645508	967.5205688476565	-1341.9619140625	-29.52562904357911	927.8464355468752	-1366.484130859375	-37.64675903320313	866.2548828125002	-1314.85986328125	216.6281433105469	874.339294433594	-1334.611694335938	211.4926147460938	870.5579833984377	-1399.834228515625	300.4491271972657	866.3723144531252	-1341.819580078125	-151.9403228759766	1097.343139648438	-890.490905761719	-63.38618087768556	982.4353027343752	-790.2330322265627	-19.90443992614746	996.5176391601565	-808.135681152344	-5.786259651184083	942.7361450195315	-782.067810058594	55.49757003784181	914.4588012695315	-778.7781982421877	38.37961196899415	869.145935058594	-837.6782836914065	287.6389465332032	843.913513183594	-839.6900634765627	278.8625488281251	834.421813964844	-774.1361083984377	362.6801147460938	842.0430297851565	-824.8479614257815	-368.0186157226563	721.6888427734376	-1109.90771484375	-363.4759216308594	688.3244018554689	-898.5149536132815	-481.9761657714845	842.6188964843752	-986.233337402344	-506.7846069335939	824.953063964844	-1015.401184082031	-501.535369873047	815.811950683594	-959.1390380859377	-403.002899169922	639.1742553710939	-1187.721313476563	-325.6539916992188	604.3433837890626	-1184.065673828125	-293.7431335449219	635.1249389648439	-1162.10302734375	-310.4710998535157	545.0462646484376	-1177.598266601563	-205.6832580566407	428.614471435547	-1146.645385742188	-193.5516662597657	443.690155029297	-1035.267456054688	-212.4487457275391	303.6718750000001	-1045.680297851563	-250.3808898925782	245.1154022216797	-1101.767944335938	-225.2632141113282	248.5315246582032	-1060.984375	-277.0202026367188	197.685043334961	-1018.445495605469	-379.8089599609376	106.716064453125	-1056.463012695313	-351.2874755859376	121.6649932861328	-976.6373291015627	-442.4718627929689	96.83999633789065	-1007.049499511719	-241.5101928710938	50.44825363159181	-991.217468261719	-235.9185943603516	49.8135452270508	-1029.970581054688	-260.8676452636719	44.74485778808594	-1079.910888671875	-480.2098693847657	470.4520568847657	-837.007019042969	-450.716766357422	408.7077026367189	-840.8618774414065	-418.4062500000001	404.7633056640626	-852.2647094726565	-493.1939392089845	337.9708862304688	-856.3981933593752	-504.9550781250001	296.3733215332032	-865.900573730469	-500.9490966796876	288.6318664550782	-980.2512207031252	-619.6489868164064	236.5804595947266	-892.456237792969	-700.8128662109376	304.4965515136719	-866.9733886718752	-702.6447143554689	259.4796142578126	-879.0291137695315	-746.7648925781251	248.7857208251954	-917.524597167969	-885.7378540039065	305.0591735839844	-886.679138183594	-866.4727783203127	289.1472778320313	-969.0981445312502	-901.1230468750002	368.5135803222657	-926.5230102539065	-937.6502075195315	172.9616088867188	-978.8721923828127	-940.0772094726565	159.3634796142578	-933.0255126953127	-961.7080078125002	183.5018157958985	-879.3530883789065	
1737	8.68	-15.14513683319092	1309.146240234375	-1030.521240234375	-163.6357879638672	1252.710327148438	-1124.26708984375	-145.6425476074219	1257.55322265625	-972.7087402343752	-220.1109924316407	1174.708740234375	-1034.260375976563	-413.8732910156251	935.6217041015627	-997.8821411132815	-136.4316101074219	1047.062133789063	-1044.32666015625	-190.3961334228516	1105.742065429688	-1195.811645507813	-113.8043441772461	1001.935424804688	-1309.727294921875	-68.38366699218751	999.5398559570315	-1289.517822265625	-64.60253143310548	966.925231933594	-1342.302856445313	-30.99312782287598	926.7329101562502	-1366.700805664063	-40.6002426147461	865.356384277344	-1315.23876953125	213.687728881836	871.4526367187502	-1334.498168945313	208.1795806884766	867.5791015625002	-1399.646606445313	297.4590759277344	862.7761840820315	-1341.576049804688	-152.4509735107422	1098.559936523438	-890.2457275390627	-65.13867187500001	982.0316162109377	-789.9499511718752	-21.69099998474121	995.7017822265627	-807.8367309570315	-8.051309585571291	941.852233886719	-781.7894287109377	52.88034439086915	912.8663330078127	-778.653991699219	35.32359695434571	867.6948242187502	-837.0207519531252	284.4279785156251	840.213317871094	-839.1856079101565	275.5580444335938	830.682067871094	-773.6641845703127	359.5269165039063	837.5776977539065	-824.4714965820315	-367.2798767089844	723.0212402343751	-1109.92529296875	-363.1705627441407	689.4568481445314	-898.5751953125002	-481.8259277343751	843.353698730469	-986.3632812500002	-506.5368041992189	825.9482421875002	-1015.615966796875	-501.3338623046876	816.6096801757815	-959.3369140625002	-402.4539794921876	639.6485595703126	-1187.54052734375	-325.2383117675782	604.5266113281251	-1183.869506835938	-293.4920349121094	635.2018432617189	-1161.834350585938	-310.2095336914063	545.2716064453126	-1177.233642578125	-205.6080322265626	428.7689819335939	-1146.055053710938	-193.5776519775391	443.8233947753907	-1034.908203125	-212.5392456054688	303.7598571777344	-1045.342407226563	-250.3477630615235	245.2161254882813	-1101.674560546875	-225.2881927490235	248.6279754638672	-1060.733032226563	-277.0610656738282	197.7223205566407	-1018.296997070313	-379.8008117675782	106.7332763671875	-1056.439575195313	-351.3223266601563	121.6030883789063	-976.5794677734377	-442.4291076660157	96.77227020263675	-1007.017822265625	-241.5050354003907	50.4668312072754	-991.1916503906252	-235.9764099121094	49.80857467651369	-1029.994018554688	-260.8293762207032	44.75133132934571	-1079.889404296875	-479.7796936035157	471.5174865722657	-836.8331298828127	-450.143768310547	409.6851196289064	-840.5706787109377	-417.8156127929689	405.7614746093751	-851.8270263671877	-492.6056518554689	338.9708862304688	-856.1815185546877	-504.280487060547	297.2843017578126	-865.6628417968752	-500.9553833007814	289.7075195312501	-980.3765869140627	-618.9796142578126	237.4110565185547	-892.472351074219	-700.2312011718751	305.2619018554688	-866.9799804687502	-701.9596557617189	260.4324951171876	-879.1614990234377	-745.9736328125001	249.5504608154297	-917.454528808594	-884.979187011719	305.7558898925782	-886.9012451171877	-865.999938964844	289.8551635742188	-969.3643798828127	-900.420104980469	369.0208740234376	-926.7883911132815	-936.7111816406252	173.501449584961	-978.808532714844	-939.2507934570315	159.84423828125	-933.3289794921877	-960.9839477539065	183.9060668945313	-879.626647949219	
